<svg width="23" height="22" viewBox="0 0 23 22" fill="none" xmlns="http://www.w3.org/2000/svg">
<path d="M3.90058 22C2.89929 22 2.01007 21.6156 1.23294 20.8469C0.410981 20.0338 0 19.0471 0 17.8866C0 16.7261 0.410981 15.7393 1.23294 14.9263L14.1228 1.39969C14.7804 0.734453 15.5388 0.305742 16.3981 0.113561C17.2575 -0.0786194 18.128 -0.0268784 19.0097 0.268784C19.8915 0.564447 20.706 1.07447 21.4532 1.79884C21.6923 2.05015 21.9128 2.32734 22.1145 2.63039C22.3163 2.93345 22.4807 3.25128 22.6077 3.5839C22.7347 3.91652 22.8319 4.26762 22.8991 4.6372C22.9664 5.00678 23 5.37636 23 5.74594C22.9701 7.31295 22.4321 8.62126 21.386 9.67086L11.6345 19.9156C11.5 20.0634 11.3356 20.141 11.1413 20.1484C10.947 20.1558 10.7789 20.093 10.6369 19.9599C10.495 19.8269 10.4202 19.6606 10.4128 19.461C10.4053 19.2614 10.4688 19.0877 10.6033 18.9399L20.3548 8.69517C21.1468 7.89688 21.5504 6.90641 21.5653 5.72376C21.5802 4.54111 21.1992 3.57282 20.422 2.81888C19.9438 2.33103 19.4133 1.96145 18.8304 1.71014C18.2476 1.45883 17.6199 1.37752 16.9474 1.46622C16.2749 1.55492 15.6771 1.85797 15.154 2.37538L2.26413 15.902C1.71118 16.4489 1.4347 17.1068 1.4347 17.8755C1.4347 18.6442 1.71118 19.3021 2.26413 19.8491C2.51819 20.1004 2.79467 20.2889 3.09357 20.4145C3.39246 20.5402 3.7063 20.5882 4.03509 20.5586C4.69266 20.5291 5.30539 20.226 5.87329 19.6495L16.1179 8.87257C16.1927 8.79866 16.2636 8.72104 16.3309 8.63974C16.3981 8.55843 16.4691 8.46234 16.5439 8.35147C16.6186 8.24059 16.6784 8.12233 16.7232 7.99667C16.768 7.87101 16.7979 7.74536 16.8129 7.6197C16.8278 7.49404 16.8054 7.36469 16.7456 7.23164C16.6858 7.0986 16.5962 6.97294 16.4766 6.85467C16.1927 6.55901 15.9162 6.42596 15.6472 6.45553C15.3632 6.4851 15.0419 6.66988 14.6832 7.0099L6.97174 15.1258C6.88207 15.2145 6.77745 15.2774 6.65789 15.3143C6.53834 15.3513 6.41504 15.355 6.28801 15.3254C6.16098 15.2958 6.05263 15.2367 5.96296 15.148C5.81352 15.015 5.73879 14.8524 5.73879 14.6602C5.73879 14.468 5.80604 14.298 5.94055 14.1502L13.652 6.01203C14.2648 5.42071 14.885 5.09548 15.5127 5.03635C16.23 4.97721 16.8876 5.24331 17.4854 5.83464C18.0533 6.38161 18.3036 7.02468 18.2364 7.76384C18.1691 8.50299 17.8067 9.1978 17.1491 9.84826L6.90448 20.6473C6.06758 21.4752 5.13353 21.9187 4.10234 21.9778C4.07245 21.9778 4.03882 21.9815 4.00146 21.9889C3.9641 21.9963 3.93047 22 3.90058 22Z" fill="black"/>
</svg>
