<svg width="20" height="20" viewBox="0 0 20 20" fill="none" xmlns="http://www.w3.org/2000/svg">
<path d="M17.43 10.98C17.47 10.66 17.5 10.34 17.5 10C17.5 9.66005 17.47 9.34005 17.43 9.02005L19.54 7.37005C19.73 7.22005 19.78 6.95005 19.66 6.73005L17.66 3.27005C17.54 3.05005 17.27 2.97005 17.05 3.05005L14.56 4.05005C14.04 3.65005 13.48 3.32005 12.87 3.07005L12.49 0.420047C12.4734 0.302388 12.4145 0.194807 12.3243 0.117483C12.2341 0.0401581 12.1188 -0.00159773 12 4.67889e-05H7.99996C7.74996 4.67889e-05 7.53996 0.180047 7.50996 0.420047L7.12996 3.07005C6.51996 3.32005 5.95996 3.66005 5.43996 4.05005L2.94996 3.05005C2.71996 2.96005 2.45996 3.05005 2.33996 3.27005L0.339961 6.73005C0.209961 6.95005 0.269962 7.22005 0.459962 7.37005L2.56996 9.02005C2.52996 9.34005 2.49996 9.67005 2.49996 10C2.49996 10.33 2.52996 10.66 2.56996 10.98L0.459962 12.63C0.269962 12.78 0.219961 13.05 0.339961 13.27L2.33996 16.73C2.45996 16.95 2.72996 17.03 2.94996 16.95L5.43996 15.95C5.95996 16.35 6.51996 16.68 7.12996 16.93L7.50996 19.58C7.53996 19.82 7.74996 20 7.99996 20H12C12.25 20 12.46 19.82 12.49 19.58L12.87 16.93C13.48 16.68 14.04 16.34 14.56 15.95L17.05 16.95C17.28 17.04 17.54 16.95 17.66 16.73L19.66 13.27C19.78 13.05 19.73 12.78 19.54 12.63L17.43 10.98ZM9.99996 13.5C8.06996 13.5 6.49996 11.93 6.49996 10C6.49996 8.07005 8.06996 6.50005 9.99996 6.50005C11.93 6.50005 13.5 8.07005 13.5 10C13.5 11.93 11.93 13.5 9.99996 13.5Z" fill="#898686"/>
</svg>
