<svg width="85" height="85" viewBox="0 0 85 85" fill="none" xmlns="http://www.w3.org/2000/svg">
<path d="M52.8327 42.5001C52.8327 48.207 48.2063 52.8334 42.4993 52.8334C36.7924 52.8334 32.166 48.207 32.166 42.5001C32.166 36.7931 36.7924 32.1667 42.4993 32.1667C48.2063 32.1667 52.8327 36.7931 52.8327 42.5001Z" fill="#C4C4C4" stroke="black" stroke-width="2"/>
<path d="M25.3939 15.1666H25.8344L26.1317 14.8416L32.3156 8.08325H52.6847L58.8686 14.8416L59.166 15.1666H59.6064H70.8335C74.177 15.1666 76.9168 17.9064 76.9168 21.2499V63.7499C76.9168 67.0935 74.177 69.8333 70.8335 69.8333H14.1668C10.8233 69.8333 8.0835 67.0935 8.0835 63.7499V21.2499C8.0835 17.9064 10.8233 15.1666 14.1668 15.1666H25.3939ZM23.7918 42.4999C23.7918 52.8272 32.1729 61.2083 42.5002 61.2083C52.8274 61.2083 61.2085 52.8272 61.2085 42.4999C61.2085 32.1726 52.8274 23.7916 42.5002 23.7916C32.1729 23.7916 23.7918 32.1726 23.7918 42.4999Z" fill="#E5E5E5" stroke="black" stroke-width="2"/>
</svg>
