<svg width="11" height="8" viewBox="0 0 11 8" fill="none" xmlns="http://www.w3.org/2000/svg">
<path d="M5.87421 7.37079L10.3471 1.71079C10.4213 1.61783 10.4802 1.50723 10.5204 1.38537C10.5606 1.26351 10.5813 1.1328 10.5813 1.00079C10.5813 0.868781 10.5606 0.738075 10.5204 0.616216C10.4802 0.494356 10.4213 0.383755 10.3471 0.290792C10.1988 0.104542 9.99815 -2.54904e-08 9.789 -3.46325e-08C9.57985 -4.37746e-08 9.3792 0.104541 9.23088 0.290792L5.27254 5.24079L1.35379 0.290792C1.20546 0.104541 1.00482 -4.18601e-07 0.795669 -4.27743e-07C0.586522 -4.36886e-07 0.385872 0.104541 0.237543 0.290792C0.16274 0.383407 0.103231 0.493852 0.0624628 0.615727C0.0216946 0.737602 0.000478654 0.868485 4.38253e-05 1.00079C0.000478642 1.1331 0.0216946 1.26398 0.0624627 1.38586C0.103231 1.50773 0.16274 1.61818 0.237543 1.71079L4.71046 7.37079C4.78459 7.4723 4.87457 7.55331 4.97471 7.60871C5.07486 7.66412 5.183 7.69272 5.29233 7.69272C5.40166 7.69272 5.50981 7.66412 5.60996 7.60871C5.7101 7.55331 5.80008 7.4723 5.87421 7.37079Z" fill="black"/>
</svg>
