<svg width="34" height="35" viewBox="0 0 34 35" fill="none" xmlns="http://www.w3.org/2000/svg">
<ellipse cx="17" cy="17.7557" rx="17" ry="16.8339" fill="#666262"/>
<path d="M18.2181 27.7785C18.2181 27.7785 17.0603 27.688 17.0136 27.0162L16.3555 25.1235L19.2175 22.4885C19.2175 22.4885 21.3158 22.4483 21.4356 22.4483C21.5575 22.4483 22.1202 25.1235 22.1202 25.1235L21.1127 26.7607L18.2181 27.7785Z" fill="#2F2F2F"/>
<path d="M18.2405 15.69C18.3034 16.2451 18.4233 16.7299 18.8153 17.1382C19.1301 17.464 19.4592 17.7416 19.7497 18.0896C20.5865 19.0933 21.9962 19.4392 22.8615 20.4912C23.4384 21.1932 23.8305 22.054 24.0295 22.927C24.253 23.9086 24.3911 24.9927 24.1148 25.9582C23.735 27.2817 22.567 27.4426 21.3462 27.6256C20.7856 27.7101 20.2148 27.7584 19.6461 27.7745C19.1931 27.7865 18.669 27.8429 18.2161 27.7805C17.82 27.7242 17.7448 27.1932 17.8525 26.8814C17.9662 26.5455 18.3075 26.4188 18.6264 26.3584C18.7828 26.3283 18.9473 26.3725 19.1058 26.3464C19.4003 26.3001 19.5242 26.109 19.5303 25.8174C19.5364 25.4191 19.6745 25.0872 19.8594 24.7393C19.9426 24.5824 20.0828 24.4436 20.2169 24.3249C20.353 24.2002 20.5886 24.0292 20.4586 23.812C20.2351 23.4339 19.5567 23.7818 19.3272 23.9448C18.9717 24.1942 18.7198 24.5723 18.6101 24.9887C18.4537 25.566 18.3339 25.6042 17.7895 25.8093C17.4686 25.932 17.172 26.1352 17.0501 26.451C16.9019 26.8432 17.1497 27.3058 16.8937 27.6478C16.6926 27.9213 16.3026 28.0722 15.9451 28.0581C15.023 28.0179 14.4055 27.7946 14.5984 26.8653C14.7203 26.282 14.6817 25.6424 14.7183 25.037C14.7305 24.8097 14.7528 24.4617 14.5233 24.3028C14.4339 24.2384 14.31 24.2284 14.2064 24.2344C14.1353 24.2364 13.9565 24.2264 13.8895 24.2485C13.6925 24.3108 13.7392 24.6246 13.7412 24.7896C13.7433 25.1074 13.7372 25.4312 13.729 25.745C13.7209 26.1171 13.7615 26.4852 13.7656 26.8533C13.7676 27.0946 13.79 27.3923 13.5889 27.5633C13.3594 27.7644 13.008 27.8087 12.6951 27.8187C12.3194 27.8328 11.8908 27.8046 11.578 27.5874C10.9381 27.1409 11.1555 26.1171 11.2144 25.5197C11.253 25.1315 11.2245 24.7272 11.2144 24.3289C11.2062 23.9709 11.1961 23.6109 11.188 23.2488C11.1839 23.1 11.1636 22.9391 11.1717 22.7862C11.2022 22.3638 11.1148 21.9314 11.1026 21.4929C11.0823 20.6883 11.0397 19.8697 11.0397 19.051C11.0397 18.701 11.1006 18.3169 11.2022 17.985C11.257 17.808 11.3159 17.5706 11.4114 17.4158C11.5617 17.1684 11.8217 16.9471 12.039 16.754C12.3194 16.5066 12.6525 16.3819 12.9734 16.1908C13.3898 15.9414 13.8245 15.7061 14.2755 15.515C15.0676 15.1811 15.9147 14.8955 16.8003 14.8633C17.1111 14.8512 17.3447 14.8029 17.6453 14.7346C17.948 14.6662 18.0983 14.8673 18.1531 15.1489C18.1998 15.3239 18.2201 15.5069 18.2405 15.69Z" fill="#F79329"/>
<path d="M15.0108 9.89712C15.0108 9.89712 14.5781 9.37214 13.5706 7.92997C12.949 7.0369 10.9889 4.52265 9.99764 5.04361C8.46811 5.84414 8.63873 11.5163 8.63873 11.5163L15.0108 9.89712Z" fill="#F79329"/>
<path d="M15.6526 9.9645C15.6526 9.9645 16.1868 9.54211 17.4746 8.33527C18.2729 7.59105 20.7165 5.53741 21.5777 6.24744C22.9062 7.34566 21.5473 12.8589 21.5473 12.8589L15.6526 9.9645Z" fill="#F79329"/>
<path d="M22.3598 15.3178C22.4269 13.5659 21.6022 11.6671 20.1498 10.3919C18.9758 9.35806 17.2329 8.7124 15.48 8.53339C13.727 8.34834 11.8887 8.62189 10.5237 9.38823C8.83373 10.3376 7.63123 12.0232 7.32654 13.753C7.03811 15.3943 7.20061 17.0939 8.63264 18.4053C9.42686 19.1315 10.4526 19.6765 11.5333 20.0245C11.9436 20.1573 13.0079 20.4771 14.1434 20.5958C15.2829 20.7144 16.4936 20.632 16.9242 20.5857C18.0536 20.467 19.1728 20.1472 20.1011 19.6021C21.7809 18.6125 22.2969 16.9833 22.3598 15.3178Z" fill="#F79329"/>
<path d="M12.3073 14.6622C12.2382 15.3078 11.7121 15.7825 11.1332 15.7222C10.5543 15.6618 10.1379 15.0906 10.207 14.4429C10.276 13.7953 10.8021 13.3206 11.381 13.3809C11.9599 13.4433 12.3743 14.0145 12.3073 14.6622Z" fill="#2F2F2F"/>
<path d="M17.1925 15.1704C17.1234 15.8161 17.5378 16.3893 18.1167 16.4497C18.6956 16.51 19.2217 16.0353 19.2907 15.3896C19.3598 14.742 18.9454 14.1687 18.3665 14.1084C17.7856 14.0501 17.2615 14.5227 17.1925 15.1704Z" fill="#2F2F2F"/>
<path d="M14.5214 17.8945C14.5112 17.8945 14.499 17.8945 14.4889 17.8925C14.3162 17.8744 14.1903 17.7215 14.2086 17.5485L14.3304 16.4C14.3487 16.229 14.5051 16.1124 14.6778 16.1224C14.8504 16.1405 14.9764 16.2934 14.9581 16.4664L14.8362 17.6129C14.8179 17.7738 14.6818 17.8945 14.5214 17.8945Z" fill="#2F2F2F"/>
<path d="M13.6012 18.6447C13.2823 18.6427 12.9613 18.5462 12.7277 18.3692C12.5429 18.2284 12.2484 17.802 12.551 17.639C12.5998 17.6129 12.6546 17.5988 12.7095 17.5928C12.7968 17.5807 12.8679 17.6028 12.941 17.6571C13.0588 17.7436 13.1584 17.8985 13.3046 17.9267C13.7616 18.0192 14.1557 17.7879 14.2654 17.3333C14.2938 17.2106 14.304 17.1523 14.4502 17.1382C14.8057 17.106 14.891 17.5485 14.7935 17.812C14.7062 18.0474 14.5924 18.3008 14.371 18.4416C14.1435 18.5844 13.8693 18.6467 13.6012 18.6447Z" fill="#2F2F2F"/>
<path d="M15.2647 18.7936C15.5796 18.8499 15.9127 18.8117 16.1767 18.6809C16.3839 18.5743 16.7536 18.2103 16.4855 17.9951C16.3169 17.8603 16.1686 17.9146 16.0041 18.0192C15.5856 18.2867 15.0128 18.0976 14.8727 17.6149C14.8422 17.5043 14.8849 17.3293 14.8341 17.2307C14.8097 17.1845 14.7711 17.1945 14.7142 17.1744C14.6756 17.1603 14.6513 17.1442 14.6086 17.1422C14.4116 17.1302 14.2978 17.3393 14.2674 17.5043C14.2511 17.5928 14.2328 17.6672 14.2471 17.7557C14.2897 18.0051 14.3547 18.2726 14.5477 18.4516C14.7427 18.6367 15.0006 18.7453 15.2647 18.7936Z" fill="#2F2F2F"/>
<path d="M13.5626 16.4744C13.5565 16.6896 13.6804 16.9269 13.8896 17.0878C14.0602 17.2186 14.3121 17.3031 14.562 17.3272C14.8118 17.3533 15.0759 17.3232 15.2688 17.2327C15.5085 17.118 15.6792 16.9128 15.7177 16.6996C15.7563 16.4985 15.7299 16.2853 15.5207 16.1204C15.407 16.0278 15.2587 15.9594 15.1023 15.9152C15.0454 15.8971 14.891 15.8549 14.7285 15.8388C14.564 15.8207 14.3913 15.8287 14.3304 15.8347C14.1699 15.8468 14.0095 15.885 13.8774 15.9494C13.6398 16.0681 13.5687 16.2672 13.5626 16.4744Z" fill="#2F2F2F"/>
<path d="M22.8332 24.8458C23.081 24.6829 23.341 24.7553 23.6172 24.7875C24.8075 24.9243 26.1563 25.9581 26.205 27.1891C26.2639 28.7701 24.8441 29.9126 23.4303 30.2887C22.4005 30.5622 21.2853 30.5622 20.225 30.52C19.7619 30.5019 18.925 30.5783 18.5168 30.3209C18.3705 30.2304 18.2425 30.0413 18.1755 29.8864C17.9297 29.3212 18.4253 28.927 18.9555 28.929C19.3414 28.931 19.7274 28.937 20.1153 28.933C20.9603 28.927 21.8094 28.9893 22.6443 28.8244C23.4039 28.6755 24.5171 28.0862 24.4703 27.169C24.4358 26.4952 23.6802 26.3624 23.1358 26.282C22.9977 26.2619 22.8616 26.2176 22.7032 26.2136C22.3924 26.2055 22.4066 25.9159 22.4289 25.6906C22.4614 25.3708 22.5122 25.1033 22.7824 24.884C22.7925 24.872 22.8128 24.8579 22.8332 24.8458Z" fill="#F79329"/>
<path d="M7.82418 14.8826C7.80387 14.8826 7.78356 14.8806 7.76324 14.8765L6.09356 14.553C5.92293 14.5208 5.81121 14.356 5.84574 14.1872C5.87824 14.0184 6.04887 13.9058 6.21543 13.942L7.88512 14.2676C8.05574 14.2998 8.16746 14.4646 8.13293 14.6314C8.10246 14.7781 7.97043 14.8826 7.82418 14.8826Z" fill="#F79329"/>
<path d="M6.10783 16.1498C5.95142 16.1498 5.81736 16.0353 5.79705 15.8785C5.77267 15.7077 5.89455 15.553 6.06721 15.5288L7.75518 15.3098C7.92377 15.2857 8.08424 15.4062 8.10861 15.5771C8.13096 15.7479 8.00908 15.9047 7.83846 15.9268L6.15049 16.1458C6.13627 16.1498 6.12408 16.1498 6.10783 16.1498Z" fill="#F79329"/>
<path d="M6.6055 17.5576C6.46941 17.5576 6.34347 17.4692 6.30284 17.3305C6.25409 17.1657 6.35159 16.9949 6.52019 16.9467L8.15534 16.4844C8.32191 16.4382 8.49659 16.5327 8.54534 16.6995C8.59206 16.8643 8.49659 17.0371 8.328 17.0833L6.69284 17.5456C6.66237 17.5536 6.63394 17.5576 6.6055 17.5576Z" fill="#F79329"/>
<path d="M21.6287 16.0875C21.4702 16.0875 21.3341 15.9689 21.3159 15.8101C21.3067 15.7281 21.3309 15.6458 21.3831 15.5813C21.4353 15.5169 21.5112 15.4756 21.5941 15.4665L23.2862 15.2796C23.4548 15.2655 23.6152 15.3841 23.6335 15.5549C23.6538 15.7277 23.5279 15.8805 23.3552 15.8986L21.6632 16.0855C21.651 16.0855 21.6388 16.0875 21.6287 16.0875Z" fill="#F79329"/>
<path d="M23.2292 17.4934C23.2068 17.4934 23.1845 17.4914 23.1601 17.4853L21.4986 17.1256C21.4174 17.1077 21.3466 17.0589 21.3017 16.9896C21.2568 16.9203 21.2414 16.8363 21.2589 16.7558C21.2975 16.589 21.464 16.4825 21.6326 16.5187L23.2962 16.8784C23.4648 16.9146 23.5745 17.0814 23.5359 17.2482C23.5054 17.3929 23.3734 17.4934 23.2292 17.4934Z" fill="#F79329"/>
<path d="M22.6179 18.8538C22.5813 18.8538 22.5427 18.8478 22.5061 18.8337L20.9157 18.2384C20.7532 18.178 20.6699 17.997 20.7328 17.8361C20.7938 17.6752 20.9766 17.5947 21.1391 17.655L22.7316 18.2504C22.8941 18.3128 22.9754 18.4918 22.9144 18.6527C22.8657 18.7774 22.7458 18.8538 22.6179 18.8538Z" fill="#F79329"/>
<path d="M10.3126 7.40101C10.1643 7.78317 9.8657 8.88341 10.0526 9.66585C10.1074 9.89917 10.408 10.0038 10.6213 9.90319C11.0662 9.69199 11.7609 9.31988 12.0209 9.19115C12.4637 8.97594 12.616 8.70842 12.3763 8.38056C12.0716 7.96219 11.3119 7.09528 10.863 7.0108C10.6071 6.96252 10.4101 7.15361 10.3126 7.40101Z" fill="#FCD4B5"/>
<path d="M20.7938 8.45815C20.8771 8.86043 20.9827 9.99285 20.6658 10.7371C20.5724 10.9563 20.2576 11.0106 20.0646 10.8759C19.6624 10.5943 19.0429 10.1115 18.8052 9.94256C18.4071 9.65694 18.2994 9.3673 18.5919 9.08369C18.9616 8.72164 19.8574 7.9915 20.3144 7.98346C20.5765 7.97742 20.741 8.19868 20.7938 8.45815Z" fill="#FCD4B5"/>
</svg>
