<svg width="12" height="10" viewBox="0 0 12 10" fill="none" xmlns="http://www.w3.org/2000/svg">
<mask id="path-1-inside-1" fill="white">
<path d="M6 2.94118C6.75377 2.94118 7.47667 3.22006 8.00967 3.71648C8.54267 4.2129 8.8421 4.88619 8.8421 5.58824C8.8421 6.29028 8.54267 6.96357 8.00967 7.45999C7.47667 7.95641 6.75377 8.23529 6 8.23529C5.24623 8.23529 4.52333 7.95641 3.99033 7.45999C3.45733 6.96357 3.15789 6.29028 3.15789 5.58824C3.15789 4.88619 3.45733 4.2129 3.99033 3.71648C4.52333 3.22006 5.24623 2.94118 6 2.94118ZM6 3.52941C5.41373 3.52941 4.85148 3.74632 4.43692 4.13243C4.02237 4.51853 3.78947 5.0422 3.78947 5.58824C3.78947 6.13427 4.02237 6.65794 4.43692 7.04404C4.85148 7.43015 5.41373 7.64706 6 7.64706C6.58627 7.64706 7.14852 7.43015 7.56308 7.04404C7.97763 6.65794 8.21053 6.13427 8.21053 5.58824C8.21053 5.0422 7.97763 4.51853 7.56308 4.13243C7.14852 3.74632 6.58627 3.52941 6 3.52941ZM1.89474 1.17647H3.15789L4.42105 0H7.57895L8.8421 1.17647H10.1053C10.6078 1.17647 11.0897 1.36239 11.445 1.69334C11.8004 2.02429 12 2.47315 12 2.94118V8.23529C12 8.70332 11.8004 9.15218 11.445 9.48313C11.0897 9.81408 10.6078 10 10.1053 10H1.89474C1.39222 10 0.910288 9.81408 0.554956 9.48313C0.199624 9.15218 0 8.70332 0 8.23529V2.94118C0 2.47315 0.199624 2.02429 0.554956 1.69334C0.910288 1.36239 1.39222 1.17647 1.89474 1.17647ZM4.68253 0.588235L3.41937 1.76471H1.89474C1.55973 1.76471 1.23844 1.88866 1.00155 2.10929C0.764661 2.32992 0.631579 2.62916 0.631579 2.94118V8.23529C0.631579 8.54731 0.764661 8.84655 1.00155 9.06718C1.23844 9.28782 1.55973 9.41177 1.89474 9.41177H10.1053C10.4403 9.41177 10.7616 9.28782 10.9985 9.06718C11.2353 8.84655 11.3684 8.54731 11.3684 8.23529V2.94118C11.3684 2.62916 11.2353 2.32992 10.9985 2.10929C10.7616 1.88866 10.4403 1.76471 10.1053 1.76471H8.58063L7.31747 0.588235H4.68253Z"/>
</mask>
<path d="M3.15789 5.58824H-1.84211H3.15789ZM3.78947 5.58824H-1.21053H3.78947ZM6 7.64706V12.6471V7.64706ZM8.21053 5.58824H13.2105H8.21053ZM3.15789 1.17647V6.17647H5.12568L6.56565 4.83532L3.15789 1.17647ZM4.42105 0V-5H2.45327L1.0133 -3.65885L4.42105 0ZM7.57895 0L10.9867 -3.65885L9.54673 -5H7.57895V0ZM8.8421 1.17647L5.43435 4.83532L6.87432 6.17647H8.8421V1.17647ZM12 2.94118H17H12ZM12 8.23529H17H12ZM10.1053 10V15V10ZM1.89474 10V15V10ZM0 8.23529H-5H0ZM0 2.94118H-5H0ZM4.68253 0.588235V-4.41176H2.71474L1.27477 -3.07062L4.68253 0.588235ZM3.41937 1.76471V6.76471H5.38716L6.82712 5.42356L3.41937 1.76471ZM1.89474 1.76471V-3.23529V1.76471ZM0.631579 2.94118H-4.36842H0.631579ZM0.631579 8.23529H-4.36842H0.631579ZM10.1053 1.76471V-3.23529V1.76471ZM8.58063 1.76471L5.17288 5.42356L6.61284 6.76471H8.58063V1.76471ZM7.31747 0.588235L10.7252 -3.07062L9.28526 -4.41176H7.31747V0.588235ZM6 7.94118C5.53786 7.94118 5.02941 7.7735 4.60192 7.37534L11.4174 0.0576296C9.92393 -1.33337 7.96968 -2.05882 6 -2.05882L6 7.94118ZM4.60192 7.37534C4.16241 6.96599 3.8421 6.33161 3.8421 5.58824H13.8421C13.8421 3.44077 12.9229 1.45981 11.4174 0.0576296L4.60192 7.37534ZM3.8421 5.58824C3.8421 4.84486 4.16241 4.21048 4.60192 3.80114L11.4174 11.1188C12.9229 9.71666 13.8421 7.7357 13.8421 5.58824H3.8421ZM4.60192 3.80114C5.02941 3.40298 5.53786 3.23529 6 3.23529V13.2353C7.96968 13.2353 9.92393 12.5098 11.4174 11.1188L4.60192 3.80114ZM6 3.23529C6.46213 3.23529 6.97059 3.40298 7.39808 3.80114L0.582573 11.1188C2.07607 12.5098 4.03032 13.2353 6 13.2353V3.23529ZM7.39808 3.80114C7.83759 4.21048 8.15789 4.84486 8.15789 5.58824H-1.84211C-1.84211 7.7357 -0.922926 9.71666 0.582573 11.1188L7.39808 3.80114ZM8.15789 5.58824C8.15789 6.33161 7.83759 6.96599 7.39808 7.37534L0.582573 0.0576296C-0.922926 1.45981 -1.84211 3.44077 -1.84211 5.58824H8.15789ZM7.39808 7.37534C6.97059 7.7735 6.46213 7.94118 6 7.94118L6 -2.05882C4.03032 -2.05882 2.07607 -1.33337 0.582573 0.0576296L7.39808 7.37534ZM6 -1.47059C4.19782 -1.47059 2.40422 -0.80711 1.02917 0.473575L7.84468 7.79128C7.29873 8.29976 6.62964 8.52941 6 8.52941V-1.47059ZM1.02917 0.473575C-0.357888 1.76544 -1.21053 3.59678 -1.21053 5.58824H8.78947C8.78947 6.48762 8.40262 7.27162 7.84468 7.79128L1.02917 0.473575ZM-1.21053 5.58824C-1.21053 7.57969 -0.357888 9.41103 1.02917 10.7029L7.84468 3.38519C8.40262 3.90485 8.78947 4.68885 8.78947 5.58824H-1.21053ZM1.02917 10.7029C2.40422 11.9836 4.19782 12.6471 6 12.6471L6 2.64706C6.62964 2.64706 7.29873 2.87672 7.84468 3.38519L1.02917 10.7029ZM6 12.6471C7.80218 12.6471 9.59578 11.9836 10.9708 10.7029L4.15532 3.38519C4.70126 2.87672 5.37036 2.64706 6 2.64706V12.6471ZM10.9708 10.7029C12.3579 9.41103 13.2105 7.57969 13.2105 5.58824H3.21053C3.21053 4.68885 3.59738 3.90485 4.15532 3.38519L10.9708 10.7029ZM13.2105 5.58824C13.2105 3.59678 12.3579 1.76544 10.9708 0.473575L4.15532 7.79128C3.59738 7.27162 3.21053 6.48762 3.21053 5.58824H13.2105ZM10.9708 0.473575C9.59578 -0.80711 7.80218 -1.47059 6 -1.47059V8.52941C5.37036 8.52941 4.70126 8.29976 4.15532 7.79128L10.9708 0.473575ZM1.89474 6.17647H3.15789V-3.82353H1.89474V6.17647ZM6.56565 4.83532L7.82881 3.65885L1.0133 -3.65885L-0.249861 -2.48238L6.56565 4.83532ZM4.42105 5H7.57895V-5H4.42105V5ZM4.17119 3.65885L5.43435 4.83532L12.2499 -2.48238L10.9867 -3.65885L4.17119 3.65885ZM8.8421 6.17647H10.1053V-3.82353H8.8421V6.17647ZM10.1053 6.17647C9.39187 6.17647 8.64245 5.91583 8.03729 5.35219L14.8528 -1.96551C13.537 -3.19104 11.8237 -3.82353 10.1053 -3.82353V6.17647ZM8.03729 5.35219C7.42012 4.77738 7 3.91857 7 2.94118H17C17 1.02773 16.1806 -0.728803 14.8528 -1.96551L8.03729 5.35219ZM7 2.94118V8.23529H17V2.94118H7ZM7 8.23529C7 7.2579 7.42012 6.39909 8.03729 5.82428L14.8528 13.142C16.1806 11.9053 17 10.1487 17 8.23529H7ZM8.03729 5.82428C8.64246 5.26064 9.39187 5 10.1053 5V15C11.8237 15 13.537 14.3675 14.8528 13.142L8.03729 5.82428ZM10.1053 5H1.89474V15H10.1053V5ZM1.89474 5C2.60813 5 3.35754 5.26064 3.96271 5.82428L-2.8528 13.142C-1.53697 14.3675 0.176316 15 1.89474 15V5ZM3.96271 5.82428C4.57988 6.39909 5 7.2579 5 8.23529H-5C-5 10.1487 -4.18063 11.9053 -2.8528 13.142L3.96271 5.82428ZM5 8.23529V2.94118H-5V8.23529H5ZM5 2.94118C5 3.91857 4.57988 4.77738 3.96271 5.35219L-2.8528 -1.96551C-4.18063 -0.728804 -5 1.02773 -5 2.94118H5ZM3.96271 5.35219C3.35755 5.91583 2.60813 6.17647 1.89474 6.17647V-3.82353C0.176314 -3.82353 -1.53697 -3.19104 -2.8528 -1.96551L3.96271 5.35219ZM1.27477 -3.07062L0.0116126 -1.89415L6.82712 5.42356L8.09028 4.24709L1.27477 -3.07062ZM3.41937 -3.23529H1.89474V6.76471H3.41937V-3.23529ZM1.89474 -3.23529C0.343821 -3.23529 -1.20882 -2.66478 -2.40621 -1.54957L4.4093 5.76814C3.68569 6.44209 2.77563 6.76471 1.89474 6.76471V-3.23529ZM-2.40621 -1.54957C-3.6156 -0.423174 -4.36842 1.18374 -4.36842 2.94118H5.63158C5.63158 4.07458 5.14492 5.08301 4.4093 5.76814L-2.40621 -1.54957ZM-4.36842 2.94118V8.23529H5.63158V2.94118H-4.36842ZM-4.36842 8.23529C-4.36842 9.99274 -3.6156 11.5996 -2.40621 12.726L4.4093 5.40833C5.14492 6.09346 5.63158 7.10189 5.63158 8.23529H-4.36842ZM-2.40621 12.726C-1.20882 13.8412 0.343818 14.4118 1.89474 14.4118V4.41177C2.77564 4.41177 3.6857 4.73438 4.4093 5.40833L-2.40621 12.726ZM1.89474 14.4118H10.1053V4.41177H1.89474V14.4118ZM10.1053 14.4118C11.6562 14.4118 13.2088 13.8412 14.4062 12.726L7.59069 5.40833C8.3143 4.73438 9.22436 4.41177 10.1053 4.41177V14.4118ZM14.4062 12.726C15.6156 11.5996 16.3684 9.99274 16.3684 8.23529H6.36842C6.36842 7.10189 6.85508 6.09346 7.59069 5.40833L14.4062 12.726ZM16.3684 8.23529V2.94118H6.36842V8.23529H16.3684ZM16.3684 2.94118C16.3684 1.18373 15.6156 -0.423176 14.4062 -1.54957L7.59069 5.76814C6.85508 5.08301 6.36842 4.07458 6.36842 2.94118H16.3684ZM14.4062 -1.54957C13.2088 -2.66478 11.6562 -3.23529 10.1053 -3.23529V6.76471C9.22437 6.76471 8.3143 6.44209 7.59069 5.76814L14.4062 -1.54957ZM10.1053 -3.23529H8.58063V6.76471H10.1053V-3.23529ZM11.9884 -1.89415L10.7252 -3.07062L3.90972 4.24709L5.17288 5.42356L11.9884 -1.89415ZM7.31747 -4.41176H4.68253V5.58824H7.31747V-4.41176Z" fill="#C4C4C4" mask="url(#path-1-inside-1)"/>
</svg>
