<svg width="19" height="19" viewBox="0 0 19 19" fill="none" xmlns="http://www.w3.org/2000/svg">
<path d="M13.903 11.3748C14.6142 10.2069 14.9903 8.86579 14.9902 7.49839C14.9902 3.35598 11.6383 0.00165217 7.49509 0C3.35557 0.00123913 0 3.35598 0 7.49757C0 11.6354 3.35598 14.9898 7.49757 14.9898C8.91844 14.9898 10.2422 14.5883 11.3736 13.9022L16.4718 19L19 16.4705L13.903 11.3748ZM7.49674 12.1352C4.93504 12.129 2.86404 10.0588 2.8595 7.50252C2.86125 6.27311 3.35035 5.09454 4.2196 4.22514C5.08885 3.35573 6.26733 2.86642 7.49674 2.86446C10.0572 2.87107 12.129 4.94124 12.1344 7.50252C12.129 10.056 10.0564 12.129 7.49674 12.1352Z" fill="white"/>
</svg>
