<svg width="20" height="20" viewBox="0 0 20 20" fill="none" xmlns="http://www.w3.org/2000/svg">
<path d="M10 11.8569C15.5227 11.8569 20 13.8563 20 16.3227V19.5125H0V16.3227C0 13.8563 4.47733 11.8569 10 11.8569ZM18.6667 16.3227C18.6667 14.5619 14.7867 13.1329 10 13.1329C5.21333 13.1329 1.33333 14.5619 1.33333 16.3227V18.2366H18.6667V16.3227ZM10 0.373611C11.2377 0.373611 12.4247 0.844108 13.2998 1.6816C14.175 2.51909 14.6667 3.65496 14.6667 4.83935C14.6667 6.02374 14.175 7.15962 13.2998 7.99711C12.4247 8.8346 11.2377 9.30509 10 9.30509C8.76232 9.30509 7.57534 8.8346 6.70017 7.99711C5.825 7.15962 5.33333 6.02374 5.33333 4.83935C5.33333 3.65496 5.825 2.51909 6.70017 1.6816C7.57534 0.844108 8.76232 0.373611 10 0.373611ZM10 1.64954C9.11595 1.64954 8.2681 1.98561 7.64298 2.58381C7.01786 3.18202 6.66667 3.99336 6.66667 4.83935C6.66667 5.68534 7.01786 6.49668 7.64298 7.09489C8.2681 7.6931 9.11595 8.02917 10 8.02917C10.8841 8.02917 11.7319 7.6931 12.357 7.09489C12.9821 6.49668 13.3333 5.68534 13.3333 4.83935C13.3333 3.99336 12.9821 3.18202 12.357 2.58381C11.7319 1.98561 10.8841 1.64954 10 1.64954V1.64954Z" fill="white"/>
</svg>
